<svg data-v-423bf9ae="" xmlns="http://www.w3.org/2000/svg" viewBox="0 0 664 90" class="iconLeftSlogan"><!----><!----><!----><g data-v-423bf9ae="" id="2211a609-0d53-4a2b-9c56-bdbcaf414c21" fill="#213210" transform="matrix(5.071851258406724,0,0,5.071851258406724,118.64586438223552,-38.85037891181811)"><path d="M10.97 16.45L10.97 16.45L10.97 16.45Q10.97 16.95 10.80 17.36L10.80 17.36L10.80 17.36Q10.63 17.78 10.33 18.12L10.33 18.12L10.33 18.12Q10.02 18.46 9.60 18.71L9.60 18.71L9.60 18.71Q9.17 18.97 8.67 19.14L8.67 19.14L8.67 19.14Q8.17 19.31 7.60 19.40L7.60 19.40L7.60 19.40Q7.03 19.49 6.45 19.49L6.45 19.49L6.45 19.49Q5.72 19.49 4.98 19.35L4.98 19.35L4.98 19.35Q4.24 19.22 3.56 18.93L3.56 18.93L3.56 18.93Q2.88 18.65 2.28 18.21L2.28 18.21L2.28 18.21Q1.69 17.78 1.25 17.19L1.25 17.19L1.25 17.19Q0.81 16.59 0.55 15.83L0.55 15.83L0.55 15.83Q0.30 15.07 0.30 14.14L0.30 14.14L0.30 14.14Q0.30 13.09 0.55 12.25L0.55 12.25L0.55 12.25Q0.81 11.40 1.24 10.75L1.24 10.75L1.24 10.75Q1.68 10.10 2.28 9.62L2.28 9.62L2.28 9.62Q2.87 9.15 3.55 8.84L3.55 8.84L3.55 8.84Q4.22 8.54 4.96 8.39L4.96 8.39L4.96 8.39Q5.69 8.24 6.41 8.24L6.41 8.24L6.41 8.24Q7.27 8.24 8.06 8.45L8.06 8.45L8.06 8.45Q8.85 8.65 9.45 9.03L9.45 9.03L9.45 9.03Q10.06 9.41 10.41 9.96L10.41 9.96L10.41 9.96Q10.77 10.51 10.77 11.20L10.77 11.20L10.77 11.20Q10.77 11.47 10.69 11.69L10.69 11.69L10.69 11.69Q10.60 11.91 10.45 12.06L10.45 12.06L10.45 12.06Q10.29 12.21 10.09 12.29L10.09 12.29L10.09 12.29Q9.88 12.37 9.64 12.37L9.64 12.37L9.64 12.37Q9.43 12.37 9.21 12.30L9.21 12.30L9.21 12.30Q9.00 12.24 8.81 12.08L8.81 12.08L8.81 12.08Q8.62 11.92 8.47 11.66L8.47 11.66L8.47 11.66Q8.32 11.40 8.23 11.03L8.23 11.03L8.23 11.03Q8.17 10.77 8.02 10.56L8.02 10.56L8.02 10.56Q7.86 10.36 7.67 10.22L7.67 10.22L7.67 10.22Q7.47 10.08 7.27 10.01L7.27 10.01L7.27 10.01Q7.06 9.94 6.90 9.94L6.90 9.94L6.90 9.94Q6.64 9.94 6.35 10.10L6.35 10.10L6.35 10.10Q6.06 10.25 5.81 10.58L5.81 10.58L5.81 10.58Q5.56 10.90 5.39 11.40L5.39 11.40L5.39 11.40Q5.23 11.90 5.23 12.58L5.23 12.58L5.23 12.58Q5.23 13.49 5.32 14.17L5.32 14.17L5.32 14.17Q5.41 14.86 5.56 15.36L5.56 15.36L5.56 15.36Q5.71 15.86 5.91 16.19L5.91 16.19L5.91 16.19Q6.10 16.52 6.31 16.72L6.31 16.72L6.31 16.72Q6.52 16.91 6.73 16.99L6.73 16.99L6.73 16.99Q6.93 17.08 7.10 17.08L7.10 17.08L7.10 17.08Q7.31 17.08 7.45 16.98L7.45 16.98L7.45 16.98Q7.58 16.88 7.58 16.75L7.58 16.75L7.58 16.75Q7.58 16.36 7.49 16.14L7.49 16.14L7.49 16.14Q7.40 15.92 7.26 15.80L7.26 15.80L7.26 15.80Q7.12 15.68 6.96 15.63L6.96 15.63L6.96 15.63Q6.79 15.58 6.66 15.51L6.66 15.51L6.66 15.51Q6.52 15.45 6.43 15.33L6.43 15.33L6.43 15.33Q6.34 15.22 6.34 14.98L6.34 14.98L6.34 14.98Q6.34 14.44 6.56 14.12L6.56 14.12L6.56 14.12Q6.78 13.80 7.14 13.63L7.14 13.63L7.14 13.63Q7.51 13.46 7.97 13.41L7.97 13.41L7.97 13.41Q8.44 13.36 8.93 13.36L8.93 13.36L8.93 13.36Q9.73 13.36 10.25 13.44L10.25 13.44L10.25 13.44Q10.77 13.51 11.07 13.65L11.07 13.65L11.07 13.65Q11.38 13.79 11.49 13.99L11.49 13.99L11.49 13.99Q11.61 14.18 11.61 14.40L11.61 14.40L11.61 14.40Q11.61 14.74 11.57 14.93L11.57 14.93L11.57 14.93Q11.52 15.13 11.45 15.25L11.45 15.25L11.45 15.25Q11.38 15.37 11.29 15.46L11.29 15.46L11.29 15.46Q11.21 15.54 11.14 15.66L11.14 15.66L11.14 15.66Q11.07 15.77 11.02 15.95L11.02 15.95L11.02 15.95Q10.97 16.13 10.97 16.45ZM16.93 13.03L16.91 16.69L16.91 16.69Q16.91 16.97 16.99 17.12L16.99 17.12L16.99 17.12Q17.06 17.28 17.18 17.36L17.18 17.36L17.18 17.36Q17.29 17.44 17.42 17.47L17.42 17.47L17.42 17.47Q17.55 17.50 17.66 17.53L17.66 17.53L17.66 17.53Q17.77 17.57 17.85 17.63L17.85 17.63L17.85 17.63Q17.92 17.70 17.92 17.85L17.92 17.85L17.92 17.85Q17.92 18.63 17.12 18.97L17.12 18.97L17.12 18.97Q16.31 19.32 14.79 19.32L14.79 19.32L14.79 19.32Q14.05 19.32 13.48 19.24L13.48 19.24L13.48 19.24Q12.91 19.15 12.52 18.97L12.52 18.97L12.52 18.97Q12.13 18.79 11.93 18.52L11.93 18.52L11.93 18.52Q11.73 18.24 11.73 17.85L11.73 17.85L11.73 17.85Q11.73 17.70 11.81 17.63L11.81 17.63L11.81 17.63Q11.88 17.57 11.99 17.53L11.99 17.53L11.99 17.53Q12.10 17.50 12.23 17.47L12.23 17.47L12.23 17.47Q12.36 17.45 12.47 17.37L12.47 17.37L12.47 17.37Q12.58 17.29 12.65 17.14L12.65 17.14L12.65 17.14Q12.73 16.99 12.73 16.71L12.73 16.71L12.73 13.06L12.73 13.06Q12.73 12.79 12.65 12.64L12.65 12.64L12.65 12.64Q12.58 12.49 12.47 12.41L12.47 12.41L12.47 12.41Q12.36 12.33 12.23 12.30L12.23 12.30L12.23 12.30Q12.10 12.28 11.99 12.24L11.99 12.24L11.99 12.24Q11.88 12.21 11.81 12.14L11.81 12.14L11.81 12.14Q11.73 12.08 11.73 11.93L11.73 11.93L11.73 11.93Q11.73 11.54 11.93 11.26L11.93 11.26L11.93 11.26Q12.13 10.99 12.52 10.80L12.52 10.80L12.52 10.80Q12.91 10.62 13.48 10.54L13.48 10.54L13.48 10.54Q14.05 10.46 14.79 10.46L14.79 10.46L14.79 10.46Q15.46 10.46 15.87 10.59L15.87 10.59L15.87 10.59Q16.28 10.73 16.51 10.99L16.51 10.99L16.51 10.99Q16.70 10.86 16.91 10.75L16.91 10.75L16.91 10.75Q17.11 10.64 17.34 10.55L17.34 10.55L17.34 10.55Q17.58 10.47 17.85 10.42L17.85 10.42L17.85 10.42Q18.12 10.37 18.45 10.37L18.45 10.37L18.45 10.37Q18.86 10.37 19.24 10.46L19.24 10.46L19.24 10.46Q19.62 10.54 19.91 10.74L19.91 10.74L19.91 10.74Q20.21 10.93 20.38 11.24L20.38 11.24L20.38 11.24Q20.56 11.55 20.56 12.01L20.56 12.01L20.56 12.01Q20.56 12.31 20.45 12.60L20.45 12.60L20.45 12.60Q20.35 12.89 20.15 13.11L20.15 13.11L20.15 13.11Q19.95 13.33 19.64 13.47L19.64 13.47L19.64 13.47Q19.34 13.60 18.94 13.60L18.94 13.60L18.94 13.60Q18.55 13.60 18.32 13.49L18.32 13.49L18.32 13.49Q18.09 13.37 17.97 13.20L17.97 13.20L17.97 13.20Q17.85 13.03 17.79 12.83L17.79 12.83L17.79 12.83Q17.73 12.63 17.67 12.46L17.67 12.46L17.67 12.46Q17.60 12.28 17.50 12.17L17.50 12.17L17.50 12.17Q17.39 12.05 17.18 12.05L17.18 12.05L17.18 12.05Q16.97 12.05 16.90 12.10L16.90 12.10L16.90 12.10Q16.83 12.15 16.83 12.25L16.83 12.25L16.83 12.25Q16.83 12.37 16.88 12.56L16.88 12.56L16.88 12.56Q16.93 12.76 16.93 13.03L16.93 13.03ZM25.82 19.49L25.82 19.49L25.82 19.49Q25.01 19.49 24.33 19.30L24.33 19.30L24.33 19.30Q23.65 19.11 23.10 18.77L23.10 18.77L23.10 18.77Q22.56 18.44 22.15 17.99L22.15 17.99L22.15 17.99Q21.74 17.54 21.46 17.02L21.46 17.02L21.46 17.02Q21.19 16.50 21.05 15.93L21.05 15.93L21.05 15.93Q20.92 15.36 20.92 14.79L20.92 14.79L20.92 14.79Q20.92 14.21 21.06 13.65L21.06 13.65L21.06 13.65Q21.21 13.08 21.51 12.58L21.51 12.58L21.51 12.58Q21.81 12.07 22.25 11.65L22.25 11.65L22.25 11.65Q22.70 11.22 23.29 10.92L23.29 10.92L23.29 10.92Q23.89 10.61 24.64 10.44L24.64 10.44L24.64 10.44Q25.39 10.26 26.29 10.26L26.29 10.26L26.29 10.26Q27.08 10.26 27.74 10.44L27.74 10.44L27.74 10.44Q28.40 10.62 28.94 10.93L28.94 10.93L28.94 10.93Q29.47 11.24 29.87 11.66L29.87 11.66L29.87 11.66Q30.27 12.09 30.54 12.58L30.54 12.58L30.54 12.58Q30.80 13.08 30.94 13.64L30.94 13.64L30.94 13.64Q31.07 14.19 31.07 14.75L31.07 14.75L31.07 14.75Q31.07 15.33 30.93 15.91L30.93 15.91L30.93 15.91Q30.78 16.50 30.49 17.02L30.49 17.02L30.49 17.02Q30.20 17.55 29.76 18.00L29.76 18.00L29.76 18.00Q29.33 18.45 28.74 18.78L28.74 18.78L28.74 18.78Q28.16 19.11 27.43 19.30L27.43 19.30L27.43 19.30Q26.69 19.49 25.82 19.49ZM26.13 17.74L26.13 17.74L26.13 17.74Q26.35 17.74 26.51 17.61L26.51 17.61L26.51 17.61Q26.66 17.47 26.76 17.22L26.76 17.22L26.76 17.22Q26.85 16.97 26.89 16.61L26.89 16.61L26.89 16.61Q26.93 16.25 26.93 15.80L26.93 15.80L26.93 15.80Q26.93 15.42 26.93 14.98L26.93 14.98L26.93 14.98Q26.92 14.55 26.89 14.13L26.89 14.13L26.89 14.13Q26.87 13.71 26.80 13.32L26.80 13.32L26.80 13.32Q26.74 12.94 26.63 12.65L26.63 12.65L26.63 12.65Q26.52 12.35 26.35 12.18L26.35 12.18L26.35 12.18Q26.17 12.01 25.93 12.01L25.93 12.01L25.93 12.01Q25.69 12.01 25.52 12.14L25.52 12.14L25.52 12.14Q25.35 12.28 25.25 12.52L25.25 12.52L25.25 12.52Q25.14 12.76 25.08 13.09L25.08 13.09L25.08 13.09Q25.03 13.43 25.03 13.83L25.03 13.83L25.03 13.83Q25.03 14.21 25.05 14.64L25.05 14.64L25.05 14.64Q25.06 15.08 25.10 15.51L25.10 15.51L25.10 15.51Q25.14 15.95 25.22 16.35L25.22 16.35L25.22 16.35Q25.30 16.75 25.42 17.06L25.42 17.06L25.42 17.06Q25.54 17.37 25.71 17.55L25.71 17.55L25.71 17.55Q25.89 17.74 26.13 17.74ZM45.55 11.65L45.55 11.65L45.55 11.65Q45.55 11.76 45.48 11.85L45.48 11.85L45.48 11.85Q45.40 11.94 45.29 12.02L45.29 12.02L45.29 12.02Q45.17 12.10 45.03 12.18L45.03 12.18L45.03 12.18Q44.88 12.26 44.75 12.34L44.75 12.34L44.75 12.34Q44.61 12.42 44.50 12.51L44.50 12.51L44.50 12.51Q44.39 12.60 44.33 12.71L44.33 12.71L40.83 19.26L40.83 19.26Q40.79 19.34 40.71 19.38L40.71 19.38L40.71 19.38Q40.63 19.43 40.55 19.43L40.55 19.43L40.55 19.43Q40.39 19.43 40.30 19.26L40.30 19.26L38.43 16.00L36.48 19.26L36.48 19.26Q36.43 19.34 36.35 19.38L36.35 19.38L36.35 19.38Q36.27 19.43 36.19 19.43L36.19 19.43L36.19 19.43Q36.03 19.43 35.94 19.26L35.94 19.26L32.50 13.10L32.50 13.10Q32.35 12.84 32.18 12.67L32.18 12.67L32.18 12.67Q32.01 12.50 31.83 12.38L31.83 12.38L31.83 12.38Q31.66 12.27 31.50 12.20L31.50 12.20L31.50 12.20Q31.34 12.12 31.22 12.04L31.22 12.04L31.22 12.04Q31.10 11.97 31.02 11.88L31.02 11.88L31.02 11.88Q30.95 11.80 30.95 11.66L30.95 11.66L30.95 11.66Q30.95 11.28 31.17 11.04L31.17 11.04L31.17 11.04Q31.39 10.81 31.82 10.68L31.82 10.68L31.82 10.68Q32.25 10.55 32.87 10.50L32.87 10.50L32.87 10.50Q33.49 10.46 34.29 10.46L34.29 10.46L34.29 10.46Q34.53 10.46 34.84 10.48L34.84 10.48L34.84 10.48Q35.16 10.50 35.49 10.55L35.49 10.55L35.49 10.55Q35.83 10.60 36.15 10.68L36.15 10.68L36.15 10.68Q36.48 10.77 36.73 10.90L36.73 10.90L36.73 10.90Q36.98 11.03 37.14 11.22L37.14 11.22L37.14 11.22Q37.30 11.41 37.30 11.66L37.30 11.66L37.30 11.66Q37.30 11.88 37.20 12.00L37.20 12.00L37.20 12.00Q37.11 12.11 37.00 12.19L37.00 12.19L37.00 12.19Q36.89 12.26 36.79 12.32L36.79 12.32L36.79 12.32Q36.70 12.39 36.70 12.51L36.70 12.51L36.70 12.51Q36.70 12.60 36.76 12.71L36.76 12.71L37.64 14.59L38.52 12.71L38.52 12.71Q38.55 12.66 38.55 12.61L38.55 12.61L38.55 12.61Q38.55 12.48 38.42 12.39L38.42 12.39L38.42 12.39Q38.30 12.30 38.15 12.20L38.15 12.20L38.15 12.20Q38.01 12.10 37.88 11.97L37.88 11.97L37.88 11.97Q37.76 11.85 37.76 11.65L37.76 11.65L37.76 11.65Q37.76 11.27 37.88 11.04L37.88 11.04L37.88 11.04Q38.00 10.80 38.24 10.67L38.24 10.67L38.24 10.67Q38.49 10.55 38.86 10.50L38.86 10.50L38.86 10.50Q39.23 10.46 39.74 10.46L39.74 10.46L39.74 10.46Q40.13 10.46 40.43 10.51L40.43 10.51L40.43 10.51Q40.74 10.56 40.94 10.69L40.94 10.69L40.94 10.69Q41.15 10.83 41.25 11.06L41.25 11.06L41.25 11.06Q41.36 11.29 41.36 11.66L41.36 11.66L41.36 11.66Q41.12 11.86 40.94 12.04L40.94 12.04L40.94 12.04Q40.78 12.20 40.65 12.36L40.65 12.36L40.65 12.36Q40.52 12.52 40.52 12.64L40.52 12.64L40.52 12.64Q40.52 12.69 40.54 12.71L40.54 12.71L41.60 14.59L42.56 12.71L42.56 12.71Q42.59 12.66 42.59 12.61L42.59 12.61L42.59 12.61Q42.59 12.49 42.46 12.40L42.46 12.40L42.46 12.40Q42.34 12.31 42.20 12.21L42.20 12.21L42.20 12.21Q42.05 12.11 41.93 11.99L41.93 11.99L41.93 11.99Q41.81 11.86 41.81 11.66L41.81 11.66L41.81 11.66Q41.81 11.31 41.94 11.07L41.94 11.07L41.94 11.07Q42.07 10.83 42.32 10.70L42.32 10.70L42.32 10.70Q42.58 10.57 42.96 10.51L42.96 10.51L42.96 10.51Q43.35 10.46 43.85 10.46L43.85 10.46L43.85 10.46Q44.20 10.46 44.51 10.49L44.51 10.49L44.51 10.49Q44.81 10.53 45.04 10.65L45.04 10.65L45.04 10.65Q45.26 10.77 45.40 11.00L45.40 11.00L45.40 11.00Q45.53 11.24 45.55 11.65ZM55.91 13.19L55.91 13.19L55.91 13.19Q56.21 13.19 56.40 13.07L56.40 13.07L56.40 13.07Q56.59 12.96 56.69 12.75L56.69 12.75L56.69 12.75Q56.79 12.54 56.83 12.23L56.83 12.23L56.83 12.23Q56.86 11.93 56.86 11.55L56.86 11.55L56.86 11.55Q56.86 11.14 56.81 10.80L56.81 10.80L56.81 10.80Q56.76 10.47 56.62 10.24L56.62 10.24L56.62 10.24Q56.49 10.01 56.25 9.89L56.25 9.89L56.25 9.89Q56.02 9.77 55.66 9.77L55.66 9.77L55.66 9.77Q55.37 9.77 55.21 9.87L55.21 9.87L55.21 9.87Q55.05 9.98 54.97 10.15L54.97 10.15L54.97 10.15Q54.90 10.33 54.89 10.56L54.89 10.56L54.89 10.56Q54.87 10.79 54.87 11.05L54.87 11.05L54.87 13.12L54.87 13.12Q54.91 13.14 55.03 13.15L55.03 13.15L55.03 13.15Q55.13 13.17 55.34 13.18L55.34 13.18L55.34 13.18Q55.54 13.19 55.91 13.19ZM55.91 14.32L55.91 14.32L55.91 14.32Q55.54 14.32 55.34 14.33L55.34 14.33L55.34 14.33Q55.13 14.34 55.03 14.36L55.03 14.36L55.03 14.36Q54.91 14.38 54.87 14.39L54.87 14.39L54.87 16.46L54.87 16.46Q54.87 16.71 54.89 16.95L54.89 16.95L54.89 16.95Q54.90 17.18 54.97 17.35L54.97 17.35L54.97 17.35Q55.05 17.53 55.21 17.63L55.21 17.63L55.21 17.63Q55.37 17.74 55.66 17.74L55.66 17.74L55.66 17.74Q56.02 17.74 56.25 17.62L56.25 17.62L56.25 17.62Q56.49 17.49 56.62 17.26L56.62 17.26L56.62 17.26Q56.76 17.04 56.81 16.70L56.81 16.70L56.81 16.70Q56.86 16.37 56.86 15.96L56.86 15.96L56.86 15.96Q56.86 15.57 56.83 15.27L56.83 15.27L56.83 15.27Q56.79 14.96 56.69 14.76L56.69 14.76L56.69 14.76Q56.59 14.55 56.40 14.43L56.40 14.43L56.40 14.43Q56.21 14.32 55.91 14.32ZM55.63 19.32L52.52 19.32L52.52 19.32Q51.71 19.32 51.09 19.23L51.09 19.23L51.09 19.23Q50.46 19.13 50.04 18.94L50.04 18.94L50.04 18.94Q49.61 18.74 49.39 18.44L49.39 18.44L49.39 18.44Q49.16 18.13 49.16 17.71L49.16 17.71L49.16 17.71Q49.16 17.54 49.25 17.47L49.25 17.47L49.25 17.47Q49.33 17.40 49.45 17.36L49.45 17.36L49.45 17.36Q49.57 17.32 49.71 17.29L49.71 17.29L49.71 17.29Q49.85 17.25 49.97 17.17L49.97 17.17L49.97 17.17Q50.09 17.08 50.17 16.92L50.17 16.92L50.17 16.92Q50.25 16.75 50.25 16.45L50.25 16.45L50.25 11.29L50.25 11.29Q50.25 10.99 50.17 10.82L50.17 10.82L50.17 10.82Q50.09 10.66 49.97 10.57L49.97 10.57L49.97 10.57Q49.85 10.49 49.71 10.45L49.71 10.45L49.71 10.45Q49.57 10.42 49.45 10.38L49.45 10.38L49.45 10.38Q49.33 10.34 49.25 10.27L49.25 10.27L49.25 10.27Q49.16 10.20 49.16 10.04L49.16 10.04L49.16 10.04Q49.16 9.61 49.39 9.31L49.39 9.31L49.39 9.31Q49.61 9.00 50.04 8.81L50.04 8.81L50.04 8.81Q50.46 8.61 51.09 8.52L51.09 8.52L51.09 8.52Q51.71 8.43 52.52 8.43L52.52 8.43L56.16 8.43L56.16 8.43Q57.31 8.43 58.12 8.55L58.12 8.55L58.12 8.55Q58.94 8.67 59.49 8.87L59.49 8.87L59.49 8.87Q60.05 9.08 60.38 9.36L60.38 9.36L60.38 9.36Q60.71 9.64 60.88 9.96L60.88 9.96L60.88 9.96Q61.06 10.29 61.11 10.64L61.11 10.64L61.11 10.64Q61.16 10.99 61.16 11.34L61.16 11.34L61.16 11.34Q61.16 11.74 61.06 12.05L61.06 12.05L61.06 12.05Q60.96 12.36 60.78 12.59L60.78 12.59L60.78 12.59Q60.60 12.82 60.36 12.98L60.36 12.98L60.36 12.98Q60.13 13.15 59.87 13.25L59.87 13.25L59.87 13.25Q59.60 13.36 59.32 13.41L59.32 13.41L59.32 13.41Q59.04 13.47 58.78 13.48L58.78 13.48L58.78 13.48Q59.27 13.51 59.75 13.66L59.75 13.66L59.75 13.66Q60.23 13.80 60.62 14.11L60.62 14.11L60.62 14.11Q61.00 14.42 61.24 14.93L61.24 14.93L61.24 14.93Q61.48 15.44 61.48 16.21L61.48 16.21L61.48 16.21Q61.48 16.63 61.37 17.03L61.37 17.03L61.37 17.03Q61.25 17.42 60.98 17.77L60.98 17.77L60.98 17.77Q60.71 18.12 60.27 18.40L60.27 18.40L60.27 18.40Q59.83 18.68 59.18 18.89L59.18 18.89L59.18 18.89Q58.53 19.09 57.65 19.21L57.65 19.21L57.65 19.21Q56.77 19.32 55.63 19.32L55.63 19.32ZM66.70 17.92L66.70 17.92L66.70 17.92Q66.92 17.92 67.06 17.85L67.06 17.85L67.06 17.85Q67.20 17.77 67.28 17.64L67.28 17.64L67.28 17.64Q67.35 17.51 67.38 17.31L67.38 17.31L67.38 17.31Q67.40 17.12 67.40 16.87L67.40 16.87L67.40 16.87Q67.40 16.66 67.40 16.33L67.40 16.33L67.40 16.33Q67.39 16.00 67.38 15.69L67.38 15.69L67.38 15.69Q67.37 15.32 67.36 14.92L67.36 14.92L67.36 14.92Q67.27 14.91 67.18 14.90L67.18 14.90L67.18 14.90Q67.09 14.89 67.01 14.89L67.01 14.89L67.01 14.89Q66.66 14.89 66.43 15.03L66.43 15.03L66.43 15.03Q66.19 15.17 66.05 15.42L66.05 15.42L66.05 15.42Q65.91 15.67 65.85 16.01L65.85 16.01L65.85 16.01Q65.79 16.34 65.79 16.74L65.79 16.74L65.79 16.74Q65.79 16.98 65.82 17.20L65.82 17.20L65.82 17.20Q65.84 17.41 65.94 17.57L65.94 17.57L65.94 17.57Q66.04 17.73 66.22 17.82L66.22 17.82L66.22 17.82Q66.40 17.92 66.70 17.92ZM69.99 19.32L69.99 19.32L69.99 19.32Q69.64 19.32 69.30 19.28L69.30 19.28L69.30 19.28Q68.95 19.24 68.64 19.13L68.64 19.13L68.64 19.13Q68.33 19.01 68.07 18.79L68.07 18.79L68.07 18.79Q67.81 18.57 67.63 18.21L67.63 18.21L67.63 18.21Q67.49 18.53 67.19 18.77L67.19 18.77L67.19 18.77Q66.88 19.01 66.50 19.17L66.50 19.17L66.50 19.17Q66.11 19.33 65.68 19.41L65.68 19.41L65.68 19.41Q65.26 19.49 64.87 19.49L64.87 19.49L64.87 19.49Q64.18 19.49 63.66 19.33L63.66 19.33L63.66 19.33Q63.14 19.16 62.78 18.86L62.78 18.86L62.78 18.86Q62.43 18.55 62.25 18.13L62.25 18.13L62.25 18.13Q62.07 17.71 62.07 17.18L62.07 17.18L62.07 17.18Q62.07 16.56 62.28 16.00L62.28 16.00L62.28 16.00Q62.49 15.44 62.99 15.03L62.99 15.03L62.99 15.03Q63.49 14.61 64.33 14.37L64.33 14.37L64.33 14.37Q65.17 14.12 66.44 14.12L66.44 14.12L67.38 14.12L67.38 14.12Q67.38 13.36 67.32 12.87L67.32 12.87L67.32 12.87Q67.27 12.37 67.16 12.07L67.16 12.07L67.16 12.07Q67.05 11.78 66.89 11.66L66.89 11.66L66.89 11.66Q66.73 11.55 66.49 11.55L66.49 11.55L66.49 11.55Q66.23 11.55 66.06 11.70L66.06 11.70L66.06 11.70Q65.88 11.86 65.78 12.16L65.78 12.16L65.78 12.16Q65.67 12.46 65.63 12.88L65.63 12.88L65.63 12.88Q65.58 13.30 65.58 13.83L65.58 13.83L65.58 13.83Q65.29 13.83 64.97 13.82L64.97 13.82L64.97 13.82Q64.64 13.81 64.32 13.77L64.32 13.77L64.32 13.77Q64.00 13.73 63.72 13.64L63.72 13.64L63.72 13.64Q63.44 13.56 63.22 13.41L63.22 13.41L63.22 13.41Q63 13.26 62.87 13.04L62.87 13.04L62.87 13.04Q62.74 12.81 62.74 12.49L62.74 12.49L62.74 12.49Q62.74 12.04 62.98 11.63L62.98 11.63L62.98 11.63Q63.21 11.23 63.70 10.93L63.70 10.93L63.70 10.93Q64.19 10.62 64.94 10.44L64.94 10.44L64.94 10.44Q65.69 10.26 66.73 10.26L66.73 10.26L66.73 10.26Q67.94 10.26 68.82 10.51L68.82 10.51L68.82 10.51Q69.69 10.75 70.26 11.25L70.26 11.25L70.26 11.25Q70.82 11.74 71.09 12.49L71.09 12.49L71.09 12.49Q71.36 13.23 71.36 14.24L71.36 14.24L71.36 16.66L71.36 16.66Q71.36 16.95 71.44 17.12L71.44 17.12L71.44 17.12Q71.52 17.28 71.63 17.37L71.63 17.37L71.63 17.37Q71.74 17.45 71.88 17.49L71.88 17.49L71.88 17.49Q72.02 17.52 72.13 17.56L72.13 17.56L72.13 17.56Q72.24 17.60 72.32 17.66L72.32 17.66L72.32 17.66Q72.40 17.73 72.40 17.88L72.40 17.88L72.40 17.88Q72.40 18.56 71.79 18.94L71.79 18.94L71.79 18.94Q71.18 19.32 69.99 19.32ZM77.88 13.03L77.87 16.69L77.87 16.69Q77.87 16.97 77.94 17.12L77.94 17.12L77.94 17.12Q78.02 17.28 78.13 17.36L78.13 17.36L78.13 17.36Q78.24 17.44 78.37 17.47L78.37 17.47L78.37 17.47Q78.50 17.50 78.62 17.53L78.62 17.53L78.62 17.53Q78.73 17.57 78.80 17.63L78.80 17.63L78.80 17.63Q78.88 17.70 78.88 17.85L78.88 17.85L78.88 17.85Q78.88 18.63 78.07 18.97L78.07 18.97L78.07 18.97Q77.27 19.32 75.74 19.32L75.74 19.32L75.74 19.32Q75.00 19.32 74.44 19.24L74.44 19.24L74.44 19.24Q73.87 19.15 73.48 18.97L73.48 18.97L73.48 18.97Q73.09 18.79 72.89 18.52L72.89 18.52L72.89 18.52Q72.69 18.24 72.69 17.85L72.69 17.85L72.69 17.85Q72.69 17.70 72.76 17.63L72.76 17.63L72.76 17.63Q72.84 17.57 72.95 17.53L72.95 17.53L72.95 17.53Q73.06 17.50 73.19 17.47L73.19 17.47L73.19 17.47Q73.32 17.45 73.42 17.37L73.42 17.37L73.42 17.37Q73.53 17.29 73.61 17.14L73.61 17.14L73.61 17.14Q73.68 16.99 73.68 16.71L73.68 16.71L73.68 13.06L73.68 13.06Q73.68 12.79 73.61 12.64L73.61 12.64L73.61 12.64Q73.53 12.49 73.42 12.41L73.42 12.41L73.42 12.41Q73.32 12.33 73.19 12.30L73.19 12.30L73.19 12.30Q73.06 12.28 72.95 12.24L72.95 12.24L72.95 12.24Q72.84 12.21 72.76 12.14L72.76 12.14L72.76 12.14Q72.69 12.08 72.69 11.93L72.69 11.93L72.69 11.93Q72.69 11.54 72.89 11.26L72.89 11.26L72.89 11.26Q73.09 10.99 73.48 10.80L73.48 10.80L73.48 10.80Q73.87 10.62 74.44 10.54L74.44 10.54L74.44 10.54Q75.00 10.46 75.74 10.46L75.74 10.46L75.74 10.46Q76.42 10.46 76.83 10.59L76.83 10.59L76.83 10.59Q77.23 10.73 77.46 10.99L77.46 10.99L77.46 10.99Q77.66 10.86 77.86 10.75L77.86 10.75L77.86 10.75Q78.07 10.64 78.30 10.55L78.30 10.55L78.30 10.55Q78.53 10.47 78.80 10.42L78.80 10.42L78.80 10.42Q79.08 10.37 79.41 10.37L79.41 10.37L79.41 10.37Q79.82 10.37 80.20 10.46L80.20 10.46L80.20 10.46Q80.58 10.54 80.87 10.74L80.87 10.74L80.87 10.74Q81.16 10.93 81.34 11.24L81.34 11.24L81.34 11.24Q81.51 11.55 81.51 12.01L81.51 12.01L81.51 12.01Q81.51 12.31 81.41 12.60L81.41 12.60L81.41 12.60Q81.31 12.89 81.10 13.11L81.10 13.11L81.10 13.11Q80.90 13.33 80.60 13.47L80.60 13.47L80.60 13.47Q80.29 13.60 79.90 13.60L79.90 13.60L79.90 13.60Q79.50 13.60 79.28 13.49L79.28 13.49L79.28 13.49Q79.05 13.37 78.93 13.20L78.93 13.20L78.93 13.20Q78.80 13.03 78.75 12.83L78.75 12.83L78.75 12.83Q78.69 12.63 78.62 12.46L78.62 12.46L78.62 12.46Q78.56 12.28 78.45 12.17L78.45 12.17L78.45 12.17Q78.35 12.05 78.13 12.05L78.13 12.05L78.13 12.05Q77.92 12.05 77.85 12.10L77.85 12.10L77.85 12.10Q77.79 12.15 77.79 12.25L77.79 12.25L77.79 12.25Q77.79 12.37 77.83 12.56L77.83 12.56L77.83 12.56Q77.88 12.76 77.88 13.03L77.88 13.03ZM86.87 11.83L86.88 15.91L86.88 15.91Q86.88 16.14 86.90 16.35L86.90 16.35L86.90 16.35Q86.91 16.56 86.98 16.72L86.98 16.72L86.98 16.72Q87.05 16.88 87.19 16.98L87.19 16.98L87.19 16.98Q87.34 17.08 87.59 17.08L87.59 17.08L87.59 17.08Q87.94 17.08 88.21 16.98L88.21 16.98L88.21 16.98Q88.47 16.89 88.75 16.74L88.75 16.74L88.75 16.74Q88.86 16.68 88.96 16.68L88.96 16.68L88.96 16.68Q89.11 16.68 89.21 16.82L89.21 16.82L89.21 16.82Q89.30 16.95 89.30 17.12L89.30 17.12L89.30 17.12Q89.30 17.24 89.26 17.32L89.26 17.32L89.26 17.32Q89.07 17.82 88.75 18.22L88.75 18.22L88.75 18.22Q88.44 18.63 88.04 18.91L88.04 18.91L88.04 18.91Q87.63 19.19 87.14 19.34L87.14 19.34L87.14 19.34Q86.66 19.49 86.11 19.49L86.11 19.49L86.11 19.49Q85.34 19.49 84.79 19.29L84.79 19.29L84.79 19.29Q84.25 19.10 83.87 18.77L83.87 18.77L83.87 18.77Q83.49 18.45 83.27 18.02L83.27 18.02L83.27 18.02Q83.04 17.60 82.92 17.13L82.92 17.13L82.92 17.13Q82.80 16.66 82.77 16.18L82.77 16.18L82.77 16.18Q82.73 15.71 82.73 15.29L82.73 15.29L82.73 11.83L82.39 11.83L82.39 11.83Q82.14 11.83 82.00 11.68L82.00 11.68L82.00 11.68Q81.85 11.53 81.85 11.35L81.85 11.35L81.85 11.35Q81.85 11.14 82.04 11.00L82.04 11.00L82.04 11.00Q82.84 10.42 83.51 9.89L83.51 9.89L83.51 9.89Q84.17 9.35 84.65 8.93L84.65 8.93L84.65 8.93Q85.21 8.44 85.65 8.00L85.65 8.00L85.65 8.00Q85.83 7.83 86.02 7.74L86.02 7.74L86.02 7.74Q86.20 7.66 86.37 7.66L86.37 7.66L86.37 7.66Q86.58 7.66 86.73 7.80L86.73 7.80L86.73 7.80Q86.87 7.94 86.87 8.24L86.87 8.24L86.87 10.46L88.54 10.46L88.54 10.46Q88.62 10.46 88.73 10.47L88.73 10.47L88.73 10.47Q88.85 10.48 88.95 10.54L88.95 10.54L88.95 10.54Q89.05 10.60 89.12 10.74L89.12 10.74L89.12 10.74Q89.20 10.87 89.20 11.12L89.20 11.12L89.20 11.12Q89.20 11.38 89.13 11.53L89.13 11.53L89.13 11.53Q89.06 11.67 88.96 11.74L88.96 11.74L88.96 11.74Q88.85 11.81 88.74 11.82L88.74 11.82L88.74 11.82Q88.63 11.83 88.54 11.83L88.54 11.83L86.87 11.83ZM94.75 12.01L94.75 12.01L94.75 12.01Q94.53 12.01 94.34 12.11L94.34 12.11L94.34 12.11Q94.15 12.21 94.01 12.41L94.01 12.41L94.01 12.41Q93.87 12.62 93.79 12.94L93.79 12.94L93.79 12.94Q93.71 13.25 93.71 13.69L93.71 13.69L95.89 13.69L95.89 13.69Q95.89 13.21 95.82 12.89L95.82 12.89L95.82 12.89Q95.74 12.56 95.60 12.37L95.60 12.37L95.60 12.37Q95.46 12.17 95.24 12.09L95.24 12.09L95.24 12.09Q95.03 12.01 94.75 12.01ZM94.25 10.26L94.25 10.26L94.25 10.26Q95.16 10.26 95.90 10.53L95.90 10.53L95.90 10.53Q96.63 10.81 97.15 11.29L97.15 11.29L97.15 11.29Q97.67 11.76 97.94 12.41L97.94 12.41L97.94 12.41Q98.22 13.06 98.22 13.80L98.22 13.80L98.22 13.80Q98.22 14.11 98.13 14.28L98.13 14.28L98.13 14.28Q98.05 14.45 97.89 14.53L97.89 14.53L97.89 14.53Q97.73 14.62 97.50 14.64L97.50 14.64L97.50 14.64Q97.27 14.66 96.97 14.66L96.97 14.66L93.69 14.66L93.69 14.66Q93.69 15.41 93.84 15.88L93.84 15.88L93.84 15.88Q93.99 16.34 94.27 16.60L94.27 16.60L94.27 16.60Q94.54 16.86 94.92 16.96L94.92 16.96L94.92 16.96Q95.31 17.05 95.77 17.05L95.77 17.05L95.77 17.05Q96.02 17.05 96.28 17.00L96.28 17.00L96.28 17.00Q96.54 16.95 96.79 16.88L96.79 16.88L96.79 16.88Q97.03 16.80 97.23 16.72L97.23 16.72L97.23 16.72Q97.44 16.64 97.58 16.56L97.58 16.56L97.58 16.56Q97.69 16.50 97.79 16.50L97.79 16.50L97.79 16.50Q97.95 16.50 98.03 16.64L98.03 16.64L98.03 16.64Q98.12 16.77 98.12 16.93L98.12 16.93L98.12 16.93Q98.12 16.99 98.12 17.04L98.12 17.04L98.12 17.04Q98.11 17.08 98.09 17.13L98.09 17.13L98.09 17.13Q97.89 17.64 97.55 18.07L97.55 18.07L97.55 18.07Q97.21 18.50 96.72 18.82L96.72 18.82L96.72 18.82Q96.23 19.13 95.59 19.31L95.59 19.31L95.59 19.31Q94.94 19.49 94.14 19.49L94.14 19.49L94.14 19.49Q93.38 19.49 92.75 19.31L92.75 19.31L92.75 19.31Q92.11 19.13 91.60 18.80L91.60 18.80L91.60 18.80Q91.10 18.48 90.71 18.04L90.71 18.04L90.71 18.04Q90.33 17.60 90.08 17.09L90.08 17.09L90.08 17.09Q89.82 16.57 89.70 16.01L89.70 16.01L89.70 16.01Q89.57 15.44 89.57 14.87L89.57 14.87L89.57 14.87Q89.57 14.29 89.70 13.72L89.70 13.72L89.70 13.72Q89.83 13.15 90.09 12.63L90.09 12.63L90.09 12.63Q90.35 12.12 90.74 11.69L90.74 11.69L90.74 11.69Q91.13 11.25 91.65 10.93L91.65 10.93L91.65 10.93Q92.17 10.62 92.82 10.44L92.82 10.44L92.82 10.44Q93.47 10.26 94.25 10.26ZM103.81 13.03L103.80 16.69L103.80 16.69Q103.80 16.97 103.87 17.12L103.87 17.12L103.87 17.12Q103.95 17.28 104.06 17.36L104.06 17.36L104.06 17.36Q104.17 17.44 104.30 17.47L104.30 17.47L104.30 17.47Q104.43 17.50 104.55 17.53L104.55 17.53L104.55 17.53Q104.66 17.57 104.73 17.63L104.73 17.63L104.73 17.63Q104.81 17.70 104.81 17.85L104.81 17.85L104.81 17.85Q104.81 18.63 104.00 18.97L104.00 18.97L104.00 18.97Q103.20 19.32 101.67 19.32L101.67 19.32L101.67 19.32Q100.93 19.32 100.37 19.24L100.37 19.24L100.37 19.24Q99.80 19.15 99.41 18.97L99.41 18.97L99.41 18.97Q99.02 18.79 98.82 18.52L98.82 18.52L98.82 18.52Q98.62 18.24 98.62 17.85L98.62 17.85L98.62 17.85Q98.62 17.70 98.69 17.63L98.69 17.63L98.69 17.63Q98.77 17.57 98.88 17.53L98.88 17.53L98.88 17.53Q98.98 17.50 99.11 17.47L99.11 17.47L99.11 17.47Q99.24 17.45 99.35 17.37L99.35 17.37L99.35 17.37Q99.46 17.29 99.54 17.14L99.54 17.14L99.54 17.14Q99.61 16.99 99.61 16.71L99.61 16.71L99.61 13.06L99.61 13.06Q99.61 12.79 99.54 12.64L99.54 12.64L99.54 12.64Q99.46 12.49 99.35 12.41L99.35 12.41L99.35 12.41Q99.24 12.33 99.11 12.30L99.11 12.30L99.11 12.30Q98.98 12.28 98.88 12.24L98.88 12.24L98.88 12.24Q98.77 12.21 98.69 12.14L98.69 12.14L98.69 12.14Q98.62 12.08 98.62 11.93L98.62 11.93L98.62 11.93Q98.62 11.54 98.82 11.26L98.82 11.26L98.82 11.26Q99.02 10.99 99.41 10.80L99.41 10.80L99.41 10.80Q99.80 10.62 100.37 10.54L100.37 10.54L100.37 10.54Q100.93 10.46 101.67 10.46L101.67 10.46L101.67 10.46Q102.35 10.46 102.75 10.59L102.75 10.59L102.75 10.59Q103.16 10.73 103.39 10.99L103.39 10.99L103.39 10.99Q103.58 10.86 103.79 10.75L103.79 10.75L103.79 10.75Q104.00 10.64 104.23 10.55L104.23 10.55L104.23 10.55Q104.46 10.47 104.73 10.42L104.73 10.42L104.73 10.42Q105.01 10.37 105.33 10.37L105.33 10.37L105.33 10.37Q105.75 10.37 106.12 10.46L106.12 10.46L106.12 10.46Q106.50 10.54 106.80 10.74L106.80 10.74L106.80 10.74Q107.09 10.93 107.27 11.24L107.27 11.24L107.27 11.24Q107.44 11.55 107.44 12.01L107.44 12.01L107.44 12.01Q107.44 12.31 107.34 12.60L107.34 12.60L107.34 12.60Q107.24 12.89 107.03 13.11L107.03 13.11L107.03 13.11Q106.83 13.33 106.53 13.47L106.53 13.47L106.53 13.47Q106.22 13.60 105.83 13.60L105.83 13.60L105.83 13.60Q105.43 13.60 105.21 13.49L105.21 13.49L105.21 13.49Q104.98 13.37 104.86 13.20L104.86 13.20L104.86 13.20Q104.73 13.03 104.68 12.83L104.68 12.83L104.68 12.83Q104.62 12.63 104.55 12.46L104.55 12.46L104.55 12.46Q104.49 12.28 104.38 12.17L104.38 12.17L104.38 12.17Q104.28 12.05 104.06 12.05L104.06 12.05L104.06 12.05Q103.85 12.05 103.78 12.10L103.78 12.10L103.78 12.10Q103.71 12.15 103.71 12.25L103.71 12.25L103.71 12.25Q103.71 12.37 103.76 12.56L103.76 12.56L103.76 12.56Q103.81 12.76 103.81 13.03L103.81 13.03Z"></path></g><defs data-v-423bf9ae=""><linearGradient data-v-423bf9ae="" gradientTransform="rotate(25)" id="68063fe5-7d63-4af0-baa3-f5cd267d3e9e" x1="0%" y1="0%" x2="100%" y2="0%"><stop data-v-423bf9ae="" offset="0%" style="stop-color: rgb(102, 108, 53); stop-opacity: 1;"></stop><stop data-v-423bf9ae="" offset="100%" style="stop-color: rgb(119, 214, 54); stop-opacity: 1;"></stop></linearGradient></defs><g data-v-423bf9ae="" id="84e9b70c-756b-425c-ac3b-7c0716f433aa" transform="matrix(3.4545353647181716,0,0,3.4545353647181716,-4.782428079457411,-9.297640994618)" stroke="none" fill="url(#68063fe5-7d63-4af0-baa3-f5cd267d3e9e)"><path d="M4.19 21.303c-2.34 4.013-2.68 7.17-2.68 7.17-.03.274.16.52.44.55a.5.5 0 0 0 .55-.441s.33-2.858 2.43-6.553c1.21.612 5.01 2.165 10.48.79 5.65-1.42 8.15-6.356 9.91-9.95 1.67-3.401 5.01-6.25 5.01-6.25a.498.498 0 0 0 .17-.43.513.513 0 0 0-.25-.386S18.31-.85 8.55 6.246C.42 12.153 3.4 19.663 4.19 21.303zm1.26-.135c1.13.558 4.65 1.954 9.71.683 5.32-1.337 7.61-6.043 9.26-9.423 1.33-2.703 3.66-5.076 4.71-6.071-2.5-1.203-12.01-5.105-19.99.698-6.74 4.897-5.19 10.984-4.31 13.21 2.19-3.364 5.79-7.164 11.7-10.168a.51.51 0 0 1 .68.219.51.51 0 0 1-.22.672c-5.93 3.015-9.46 6.856-11.54 10.18z"></path></g><!----><g data-v-423bf9ae="" id="4c12da2d-6931-4fe1-ac41-ea5e5242a27b" fill="#213210" transform="matrix(1.764709422126436,0,0,1.764709422126436,117.59094883069352,55.058813188799554)"><path d="M10.05 3.78L10.05 13.02L9.38 13.02L9.38 6.13L9.46 4.45L9.45 4.45L6.08 13.02L5.43 13.02L2.06 4.45L2.04 4.45L2.13 6.13L2.13 13.02L1.46 13.02L1.46 3.78L2.51 3.78L5.29 10.78L5.75 12.19L5.77 12.19L6.22 10.79L9.00 3.78L10.05 3.78ZM25.31 12.56L25.31 12.56Q25.66 12.56 25.86 12.46L25.86 12.46L25.82 13.02L25.82 13.02Q25.56 13.16 25.13 13.16L25.13 13.16L25.13 13.16Q24.64 13.16 24.33 12.89L24.33 12.89L24.33 12.89Q24.02 12.63 23.98 11.97L23.98 11.97L23.98 11.97Q23.66 12.53 22.95 12.84L22.95 12.84L22.95 12.84Q22.23 13.16 21.45 13.16L21.45 13.16L21.45 13.16Q20.41 13.16 19.79 12.70L19.79 12.70L19.79 12.70Q19.17 12.24 19.17 11.38L19.17 11.38L19.17 11.38Q19.17 9.76 21.83 9.28L21.83 9.28L23.97 8.90L23.97 8.29L23.97 8.29Q23.97 7.45 23.47 6.97L23.47 6.97L23.47 6.97Q22.97 6.50 22.06 6.50L22.06 6.50L22.06 6.50Q20.40 6.50 19.82 7.98L19.82 7.98L19.29 7.59L19.29 7.59Q19.60 6.76 20.31 6.32L20.31 6.32L20.31 6.32Q21.03 5.88 22.06 5.88L22.06 5.88L22.06 5.88Q23.28 5.88 23.98 6.47L23.98 6.47L23.98 6.47Q24.67 7.07 24.67 8.20L24.67 8.20L24.67 11.82L24.67 11.82Q24.67 12.56 25.31 12.56L25.31 12.56ZM21.52 12.54L21.52 12.54Q22.11 12.54 22.67 12.34L22.67 12.34L22.67 12.34Q23.23 12.14 23.60 11.74L23.60 11.74L23.60 11.74Q23.97 11.34 23.97 10.78L23.97 10.78L23.97 9.48L22.05 9.83L22.05 9.83Q20.92 10.04 20.40 10.42L20.40 10.42L20.40 10.42Q19.88 10.79 19.88 11.38L19.88 11.38L19.88 11.38Q19.88 11.94 20.31 12.24L20.31 12.24L20.31 12.24Q20.75 12.54 21.52 12.54L21.52 12.54ZM39.31 13.02L36.64 9.31L34.99 10.91L34.99 13.02L34.29 13.02L34.29 2.80L34.99 2.80L34.99 10.02L39.14 6.02L40.05 6.02L37.16 8.82L40.17 13.02L39.31 13.02ZM54.22 9.35L54.22 9.35Q54.22 9.59 54.19 9.81L54.19 9.81L48.64 9.81L48.64 9.81Q48.71 11.10 49.40 11.82L49.40 11.82L49.40 11.82Q50.09 12.54 51.25 12.54L51.25 12.54L51.25 12.54Q52.08 12.54 52.68 12.21L52.68 12.21L52.68 12.21Q53.27 11.87 53.54 11.26L53.54 11.26L54.12 11.56L54.12 11.56Q53.73 12.33 53.00 12.75L53.00 12.75L53.00 12.75Q52.28 13.16 51.25 13.16L51.25 13.16L51.25 13.16Q49.70 13.16 48.83 12.19L48.83 12.19L48.83 12.19Q47.95 11.23 47.95 9.52L47.95 9.52L47.95 9.52Q47.95 7.81 48.80 6.85L48.80 6.85L48.80 6.85Q49.64 5.88 51.17 5.88L51.17 5.88L51.17 5.88Q52.60 5.88 53.41 6.83L53.41 6.83L53.41 6.83Q54.22 7.78 54.22 9.35L54.22 9.35ZM51.17 6.50L51.17 6.50Q50.04 6.50 49.38 7.20L49.38 7.20L49.38 7.20Q48.72 7.91 48.64 9.18L48.64 9.18L53.56 9.18L53.56 9.18Q53.49 7.92 52.87 7.21L52.87 7.21L52.87 7.21Q52.25 6.50 51.17 6.50L51.17 6.50ZM80.23 12.56L80.23 12.56Q80.58 12.56 80.78 12.46L80.78 12.46L80.74 13.02L80.74 13.02Q80.49 13.16 80.05 13.16L80.05 13.16L80.05 13.16Q79.56 13.16 79.25 12.89L79.25 12.89L79.25 12.89Q78.95 12.63 78.90 11.97L78.90 11.97L78.90 11.97Q78.58 12.53 77.87 12.84L77.87 12.84L77.87 12.84Q77.15 13.16 76.37 13.16L76.37 13.16L76.37 13.16Q75.33 13.16 74.71 12.70L74.71 12.70L74.71 12.70Q74.09 12.24 74.09 11.38L74.09 11.38L74.09 11.38Q74.09 9.76 76.75 9.28L76.75 9.28L78.89 8.90L78.89 8.29L78.89 8.29Q78.89 7.45 78.39 6.97L78.39 6.97L78.39 6.97Q77.90 6.50 76.99 6.50L76.99 6.50L76.99 6.50Q75.32 6.50 74.75 7.98L74.75 7.98L74.21 7.59L74.21 7.59Q74.52 6.76 75.24 6.32L75.24 6.32L75.24 6.32Q75.95 5.88 76.99 5.88L76.99 5.88L76.99 5.88Q78.20 5.88 78.90 6.47L78.90 6.47L78.90 6.47Q79.59 7.07 79.59 8.20L79.59 8.20L79.59 11.82L79.59 11.82Q79.59 12.56 80.23 12.56L80.23 12.56ZM76.44 12.54L76.44 12.54Q77.03 12.54 77.59 12.34L77.59 12.34L77.59 12.34Q78.15 12.14 78.52 11.74L78.52 11.74L78.52 11.74Q78.89 11.34 78.89 10.78L78.89 10.78L78.89 9.48L76.97 9.83L76.97 9.83Q75.84 10.04 75.32 10.42L75.32 10.42L75.32 10.42Q74.80 10.79 74.80 11.38L74.80 11.38L74.80 11.38Q74.80 11.94 75.24 12.24L75.24 12.24L75.24 12.24Q75.67 12.54 76.44 12.54L76.44 12.54ZM103.82 12.31L103.82 12.31Q104.87 12.31 105.48 12.74L105.48 12.74L105.48 12.74Q106.08 13.17 106.08 13.90L106.08 13.90L106.08 13.90Q106.08 14.53 105.65 15.02L105.65 15.02L105.65 15.02Q105.22 15.50 104.47 15.76L104.47 15.76L104.47 15.76Q103.71 16.03 102.75 16.03L102.75 16.03L102.75 16.03Q101.16 16.03 100.32 15.52L100.32 15.52L100.32 15.52Q99.48 15.01 99.48 14.17L99.48 14.17L99.48 14.17Q99.48 13.62 99.82 13.23L99.82 13.23L99.82 13.23Q100.16 12.84 100.74 12.67L100.74 12.67L100.74 12.67Q100.32 12.49 100.08 12.17L100.08 12.17L100.08 12.17Q99.83 11.84 99.83 11.45L99.83 11.45L99.83 11.45Q99.83 10.95 100.16 10.60L100.16 10.60L100.16 10.60Q100.49 10.25 101.05 10.09L101.05 10.09L101.05 10.09Q100.48 9.80 100.17 9.30L100.17 9.30L100.17 9.30Q99.86 8.81 99.86 8.16L99.86 8.16L99.86 8.16Q99.86 7.13 100.64 6.50L100.64 6.50L100.64 6.50Q101.42 5.88 102.70 5.88L102.70 5.88L102.70 5.88Q103.60 5.88 104.29 6.20L104.29 6.20L104.29 6.20Q104.37 5.53 104.85 5.13L104.85 5.13L104.85 5.13Q105.32 4.73 106.04 4.73L106.04 4.73L106.20 5.35L106.20 5.35Q105.55 5.35 105.17 5.64L105.17 5.64L105.17 5.64Q104.79 5.94 104.73 6.48L104.73 6.48L104.73 6.48Q105.53 7.13 105.53 8.16L105.53 8.16L105.53 8.16Q105.53 9.20 104.76 9.83L104.76 9.83L104.76 9.83Q103.98 10.46 102.70 10.46L102.70 10.46L102.70 10.46Q102.27 10.46 101.75 10.36L101.75 10.36L101.75 10.36Q101.16 10.43 100.84 10.70L100.84 10.70L100.84 10.70Q100.51 10.98 100.51 11.35L100.51 11.35L100.51 11.35Q100.51 11.80 100.88 12.05L100.88 12.05L100.88 12.05Q101.26 12.31 102.02 12.31L102.02 12.31L103.82 12.31ZM100.56 8.16L100.56 8.16Q100.56 8.95 101.14 9.41L101.14 9.41L101.14 9.41Q101.71 9.87 102.70 9.87L102.70 9.87L102.70 9.87Q103.68 9.87 104.26 9.41L104.26 9.41L104.26 9.41Q104.83 8.95 104.83 8.16L104.83 8.16L104.83 8.16Q104.83 7.38 104.26 6.92L104.26 6.92L104.26 6.92Q103.68 6.47 102.70 6.47L102.70 6.47L102.70 6.47Q101.72 6.47 101.14 6.92L101.14 6.92L101.14 6.92Q100.56 7.38 100.56 8.16L100.56 8.16ZM102.82 15.44L102.82 15.44Q104.01 15.44 104.73 15.03L104.73 15.03L104.73 15.03Q105.45 14.62 105.45 13.99L105.45 13.99L105.45 13.99Q105.45 13.48 104.99 13.20L104.99 13.20L104.99 13.20Q104.54 12.91 103.67 12.91L103.67 12.91L101.86 12.91L101.86 12.91Q101.07 12.91 100.60 13.22L100.60 13.22L100.60 13.22Q100.13 13.54 100.13 14.06L100.13 14.06L100.13 14.06Q100.13 14.70 100.83 15.07L100.83 15.07L100.83 15.07Q101.53 15.44 102.82 15.44L102.82 15.44ZM117.33 5.88L117.33 5.88Q118.89 5.88 119.78 6.85L119.78 6.85L119.78 6.85Q120.67 7.83 120.67 9.52L120.67 9.52L120.67 9.52Q120.67 11.21 119.78 12.19L119.78 12.19L119.78 12.19Q118.89 13.16 117.33 13.16L117.33 13.16L117.33 13.16Q115.78 13.16 114.89 12.19L114.89 12.19L114.89 12.19Q114.00 11.21 114.00 9.52L114.00 9.52L114.00 9.52Q114.00 7.83 114.89 6.85L114.89 6.85L114.89 6.85Q115.78 5.88 117.33 5.88L117.33 5.88ZM117.33 6.48L117.33 6.48Q116.10 6.48 115.40 7.29L115.40 7.29L115.40 7.29Q114.70 8.11 114.70 9.52L114.70 9.52L114.70 9.52Q114.70 10.93 115.40 11.75L115.40 11.75L115.40 11.75Q116.10 12.56 117.33 12.56L117.33 12.56L117.33 12.56Q118.57 12.56 119.27 11.75L119.27 11.75L119.27 11.75Q119.97 10.93 119.97 9.52L119.97 9.52L119.97 9.52Q119.97 8.11 119.27 7.29L119.27 7.29L119.27 7.29Q118.57 6.48 117.33 6.48L117.33 6.48ZM132.59 5.88L132.59 5.88Q134.15 5.88 135.04 6.85L135.04 6.85L135.04 6.85Q135.93 7.83 135.93 9.52L135.93 9.52L135.93 9.52Q135.93 11.21 135.04 12.19L135.04 12.19L135.04 12.19Q134.15 13.16 132.59 13.16L132.59 13.16L132.59 13.16Q131.04 13.16 130.15 12.19L130.15 12.19L130.15 12.19Q129.26 11.21 129.26 9.52L129.26 9.52L129.26 9.52Q129.26 7.83 130.15 6.85L130.15 6.85L130.15 6.85Q131.04 5.88 132.59 5.88L132.59 5.88ZM132.59 6.48L132.59 6.48Q131.36 6.48 130.66 7.29L130.66 7.29L130.66 7.29Q129.96 8.11 129.96 9.52L129.96 9.52L129.96 9.52Q129.96 10.93 130.66 11.75L130.66 11.75L130.66 11.75Q131.36 12.56 132.59 12.56L132.59 12.56L132.59 12.56Q133.83 12.56 134.53 11.75L134.53 11.75L134.53 11.75Q135.23 10.93 135.23 9.52L135.23 9.52L135.23 9.52Q135.23 8.11 134.53 7.29L134.53 7.29L134.53 7.29Q133.83 6.48 132.59 6.48L132.59 6.48ZM150.30 2.80L151.00 2.80L151.00 13.02L150.37 13.02L150.33 11.45L150.33 11.45Q150.04 12.25 149.35 12.71L149.35 12.71L149.35 12.71Q148.67 13.16 147.73 13.16L147.73 13.16L147.73 13.16Q146.24 13.16 145.38 12.19L145.38 12.19L145.38 12.19Q144.52 11.23 144.52 9.52L144.52 9.52L144.52 9.52Q144.52 7.81 145.38 6.85L145.38 6.85L145.38 6.85Q146.24 5.88 147.73 5.88L147.73 5.88L147.73 5.88Q148.64 5.88 149.31 6.31L149.31 6.31L149.31 6.31Q149.98 6.75 150.30 7.50L150.30 7.50L150.30 2.80ZM147.81 12.54L147.81 12.54Q148.90 12.54 149.58 11.81L149.58 11.81L149.58 11.81Q150.25 11.07 150.30 9.81L150.30 9.81L150.30 9.23L150.30 9.23Q150.23 7.97 149.57 7.23L149.57 7.23L149.57 7.23Q148.90 6.50 147.81 6.50L147.81 6.50L147.81 6.50Q146.59 6.50 145.91 7.30L145.91 7.30L145.91 7.30Q145.22 8.11 145.22 9.52L145.22 9.52L145.22 9.52Q145.22 10.93 145.91 11.74L145.91 11.74L145.91 11.74Q146.59 12.54 147.81 12.54L147.81 12.54ZM174.73 5.88L174.73 5.88Q175.78 5.88 176.52 6.38L176.52 6.38L176.52 6.38Q177.25 6.87 177.58 7.77L177.58 7.77L176.92 8.08L176.92 8.08Q176.68 7.31 176.12 6.90L176.12 6.90L176.12 6.90Q175.56 6.50 174.72 6.50L174.72 6.50L174.72 6.50Q173.50 6.50 172.82 7.30L172.82 7.30L172.82 7.30Q172.13 8.11 172.13 9.52L172.13 9.52L172.13 9.52Q172.13 10.95 172.81 11.75L172.81 11.75L172.81 11.75Q173.49 12.54 174.71 12.54L174.71 12.54L174.71 12.54Q175.60 12.54 176.23 12.10L176.23 12.10L176.23 12.10Q176.85 11.66 176.99 10.88L176.99 10.88L177.63 11.10L177.63 11.10Q177.35 12.05 176.58 12.61L176.58 12.61L176.58 12.61Q175.80 13.16 174.72 13.16L174.72 13.16L174.72 13.16Q173.17 13.16 172.30 12.19L172.30 12.19L172.30 12.19Q171.43 11.23 171.43 9.52L171.43 9.52L171.43 9.52Q171.43 7.81 172.31 6.85L172.31 6.85L172.31 6.85Q173.18 5.88 174.73 5.88L174.73 5.88ZM189.78 5.88L189.78 5.88Q190.99 5.88 191.72 6.55L191.72 6.55L191.72 6.55Q192.46 7.22 192.46 8.47L192.46 8.47L192.46 13.02L191.76 13.02L191.76 8.69L191.76 8.69Q191.76 7.59 191.21 7.03L191.21 7.03L191.21 7.03Q190.65 6.48 189.71 6.48L189.71 6.48L189.71 6.48Q189.04 6.48 188.47 6.80L188.47 6.80L188.47 6.80Q187.89 7.11 187.55 7.70L187.55 7.70L187.55 7.70Q187.21 8.29 187.21 9.07L187.21 9.07L187.21 13.02L186.51 13.02L186.51 2.80L187.21 2.80L187.21 7.41L187.21 7.41Q187.54 6.66 188.22 6.27L188.22 6.27L188.22 6.27Q188.90 5.88 189.78 5.88L189.78 5.88ZM204.76 5.88L204.76 5.88Q206.32 5.88 207.21 6.85L207.21 6.85L207.21 6.85Q208.10 7.83 208.10 9.52L208.10 9.52L208.10 9.52Q208.10 11.21 207.21 12.19L207.21 12.19L207.21 12.19Q206.32 13.16 204.76 13.16L204.76 13.16L204.76 13.16Q203.21 13.16 202.32 12.19L202.32 12.19L202.32 12.19Q201.43 11.21 201.43 9.52L201.43 9.52L201.43 9.52Q201.43 7.83 202.32 6.85L202.32 6.85L202.32 6.85Q203.21 5.88 204.76 5.88L204.76 5.88ZM204.76 6.48L204.76 6.48Q203.53 6.48 202.83 7.29L202.83 7.29L202.83 7.29Q202.13 8.11 202.13 9.52L202.13 9.52L202.13 9.52Q202.13 10.93 202.83 11.75L202.83 11.75L202.83 11.75Q203.53 12.56 204.76 12.56L204.76 12.56L204.76 12.56Q206.00 12.56 206.70 11.75L206.70 11.75L206.70 11.75Q207.40 10.93 207.40 9.52L207.40 9.52L207.40 9.52Q207.40 8.11 206.70 7.29L206.70 7.29L206.70 7.29Q206.00 6.48 204.76 6.48L204.76 6.48ZM217.49 4.66L217.49 4.66Q217.22 4.66 217.06 4.50L217.06 4.50L217.06 4.50Q216.90 4.34 216.90 4.07L216.90 4.07L216.90 4.07Q216.90 3.81 217.06 3.65L217.06 3.65L217.06 3.65Q217.22 3.49 217.49 3.49L217.49 3.49L217.49 3.49Q217.76 3.49 217.92 3.65L217.92 3.65L217.92 3.65Q218.08 3.81 218.08 4.07L218.08 4.07L218.08 4.07Q218.08 4.34 217.92 4.50L217.92 4.50L217.92 4.50Q217.76 4.66 217.49 4.66L217.49 4.66ZM217.84 6.02L217.84 13.02L217.14 13.02L217.14 6.02L217.84 6.02ZM230.20 5.88L230.20 5.88Q231.25 5.88 231.99 6.38L231.99 6.38L231.99 6.38Q232.72 6.87 233.04 7.77L233.04 7.77L232.39 8.08L232.39 8.08Q232.15 7.31 231.59 6.90L231.59 6.90L231.59 6.90Q231.03 6.50 230.19 6.50L230.19 6.50L230.19 6.50Q228.97 6.50 228.28 7.30L228.28 7.30L228.28 7.30Q227.60 8.11 227.60 9.52L227.60 9.52L227.60 9.52Q227.60 10.95 228.28 11.75L228.28 11.75L228.28 11.75Q228.96 12.54 230.17 12.54L230.17 12.54L230.17 12.54Q231.07 12.54 231.69 12.10L231.69 12.10L231.69 12.10Q232.32 11.66 232.46 10.88L232.46 10.88L233.10 11.10L233.10 11.10Q232.82 12.05 232.04 12.61L232.04 12.61L232.04 12.61Q231.27 13.16 230.19 13.16L230.19 13.16L230.19 13.16Q228.63 13.16 227.77 12.19L227.77 12.19L227.77 12.19Q226.90 11.23 226.90 9.52L226.90 9.52L226.90 9.52Q226.90 7.81 227.77 6.85L227.77 6.85L227.77 6.85Q228.65 5.88 230.20 5.88L230.20 5.88ZM247.80 9.35L247.80 9.35Q247.80 9.59 247.77 9.81L247.77 9.81L242.21 9.81L242.21 9.81Q242.28 11.10 242.98 11.82L242.98 11.82L242.98 11.82Q243.67 12.54 244.83 12.54L244.83 12.54L244.83 12.54Q245.66 12.54 246.25 12.21L246.25 12.21L246.25 12.21Q246.85 11.87 247.11 11.26L247.11 11.26L247.70 11.56L247.70 11.56Q247.31 12.33 246.58 12.75L246.58 12.75L246.58 12.75Q245.85 13.16 244.83 13.16L244.83 13.16L244.83 13.16Q243.28 13.16 242.40 12.19L242.40 12.19L242.40 12.19Q241.53 11.23 241.53 9.52L241.53 9.52L241.53 9.52Q241.53 7.81 242.38 6.85L242.38 6.85L242.38 6.85Q243.22 5.88 244.75 5.88L244.75 5.88L244.75 5.88Q246.18 5.88 246.99 6.83L246.99 6.83L246.99 6.83Q247.80 7.78 247.80 9.35L247.80 9.35ZM244.75 6.50L244.75 6.50Q243.61 6.50 242.96 7.20L242.96 7.20L242.96 7.20Q242.30 7.91 242.21 9.18L242.21 9.18L247.14 9.18L247.14 9.18Q247.07 7.92 246.45 7.21L246.45 7.21L246.45 7.21Q245.83 6.50 244.75 6.50L244.75 6.50Z"></path></g></svg>